<svg xmlns="http://www.w3.org/2000/svg" width="19.227" height="19.214" viewBox="0 0 19.227 19.214">
  <g id="icon-cart" transform="translate(-1443.5 -48.12)">
    <g id="Group_1254" data-name="Group 1254" transform="translate(63.5 -5.5)">
      <g id="shopping-cart_5_" data-name="shopping-cart (5)" transform="translate(1380 53.442)">
        <g id="Group_1253" data-name="Group 1253" transform="translate(0 0.178)">
          <path id="Path_2644" data-name="Path 2644" d="M15.726,12.744a3.434,3.434,0,0,0,1.224-1.736l2.276-6.739H4.594l-.161-1.79A2.522,2.522,0,0,0,1.921.178H0v1.5H1.921a1.016,1.016,0,0,1,1.017.933L4.112,15.637v.007a2.512,2.512,0,0,0,2.081,2.235,2.214,2.214,0,0,0,4.182.049H12.14a2.214,2.214,0,1,0,0-1.5H10.376a2.214,2.214,0,0,0-4.133-.085,1.017,1.017,0,0,1-.637-.844L5.42,13.425H13.7A3.355,3.355,0,0,0,15.726,12.744Zm-1.5,3.721a.713.713,0,1,1-.713.713A.714.714,0,0,1,14.223,16.465Zm-5.929,0a.713.713,0,1,1-.713.713A.714.714,0,0,1,8.293,16.465ZM5.285,11.924h0L4.729,5.769H17.136l-1.61,4.767-.006.019A1.933,1.933,0,0,1,13.7,11.924Z" transform="translate(0 -0.178)" fill="#eec819"/>
        </g>
      </g>
    </g>
  </g>
</svg>
