<svg xmlns="http://www.w3.org/2000/svg" width="20" height="20" viewBox="0 0 20 20">
  <g id="icon-user" transform="translate(-1396.5 -47.5)">
    <g id="Group_1255" data-name="Group 1255" transform="translate(140.5 -5.5)">
      <g id="user_5_" data-name="user (5)" transform="translate(1256 53)">
        <g id="Group_1252" data-name="Group 1252" transform="translate(0)">
          <path id="Path_2643" data-name="Path 2643" d="M17.071,12.929a9.962,9.962,0,0,0-3.8-2.384,5.781,5.781,0,1,0-6.542,0A10.016,10.016,0,0,0,0,20H1.562a8.437,8.437,0,1,1,16.875,0H20A9.935,9.935,0,0,0,17.071,12.929ZM10,10a4.219,4.219,0,1,1,4.219-4.219A4.224,4.224,0,0,1,10,10Z" transform="translate(0)" fill="#eec819"/>
        </g>
      </g>
    </g>
  </g>
</svg>
